<svg xmlns="http://www.w3.org/2000/svg" width="22.22" height="21.695" viewBox="0 0 22.22 21.695">
  <g id="Ae" transform="translate(-137.243 -0.545)">
    <path id="Path_4125" data-name="Path 4125" d="M599.629,2.305H584.991A3.791,3.791,0,0,0,581.2,6.1V20.209A3.791,3.791,0,0,0,584.991,24h14.638a3.791,3.791,0,0,0,3.791-3.791V6.1a3.791,3.791,0,0,0-3.791-3.791m-6.608,15.271a.776.776,0,0,1-.085,0h-1.811c-.15,0-.167-.013-.218-.162l-.689-2.013c-.011-.033-.024-.066-.036-.1h-3.469c-.015.043-.03.081-.043.121l-.65,2.015a.584.584,0,0,1-.037.1.138.138,0,0,1-.12.075h-1.695c-.192,0-.219-.038-.156-.22l1.443-4.138q.746-2.139,1.494-4.277a2.722,2.722,0,0,0,.175-.941c0-.108.023-.13.132-.13h2.308c.119,0,.127.009.175.141l1.718,4.8,1.605,4.485a.973.973,0,0,1,.039.121c.016.073-.009.106-.083.115m7.24-3.955c-.013.226-.03.451-.049.676-.01.119-.05.151-.168.158-.194.013-.387.034-.581.039s-.367-.008-.55-.014c-.152,0-.3-.017-.455-.017q-1.34,0-2.679,0h-.157c.013.08.019.139.032.2a1.721,1.721,0,0,0,.448.873,1.453,1.453,0,0,0,.452.308,2.977,2.977,0,0,0,1.4.239,6.971,6.971,0,0,0,1.284-.2c.122-.032.241-.078.373-.122a.451.451,0,0,1,.018.088c0,.47,0,.939,0,1.409a.2.2,0,0,1-.137.2,4.6,4.6,0,0,1-1.039.283,6.833,6.833,0,0,1-1.657.06,3.7,3.7,0,0,1-1.546-.44,3.125,3.125,0,0,1-1.452-1.731,4.6,4.6,0,0,1,.1-3.412,3.428,3.428,0,0,1,1.559-1.728,2.755,2.755,0,0,1,1-.307,4.73,4.73,0,0,1,1.067-.023,2.9,2.9,0,0,1,1.852.836,3.086,3.086,0,0,1,.7,1.2,3.8,3.8,0,0,1,.182,1.431" transform="translate(-443.957 -1.76)" fill="#777"/>
    <path id="Path_4126" data-name="Path 4126" d="M608.984,36.373c-.316-1.014-.651-2.021-.93-3.046-.01-.038-.025-.075-.037-.112a.129.129,0,0,0-.042.07c-.03.127-.054.256-.091.381-.148.5-.3,1.009-.45,1.511-.186.607-.378,1.212-.567,1.818-.006.02-.009.04-.016.071H609.2c-.007-.036-.01-.063-.019-.089-.064-.2-.131-.4-.194-.6" transform="translate(-463.551 -25.371)" fill="#777"/>
    <path id="Path_4127" data-name="Path 4127" d="M644.173,42.316a1.437,1.437,0,0,0-.521-.065,1.28,1.28,0,0,0-1.135.675,1.782,1.782,0,0,0-.206.586c-.006.034-.006.069-.01.122h2.025c.109,0,.219,0,.328,0a1.344,1.344,0,0,0,.25-.036c.091-.023.1-.041.1-.136a1.231,1.231,0,0,0-.828-1.141" transform="translate(-490.629 -32.271)" fill="#777"/>
  </g>
</svg>
