<svg xmlns="http://www.w3.org/2000/svg" width="21.42" height="20.884" viewBox="0 0 21.42 20.884">
  <g id="Ai" transform="translate(-45.212 -0.268)">
    <path id="Path_4132" data-name="Path 4132" d="M209.091,1.133H195.257a3.79,3.79,0,0,0-3.793,3.793v13.3a3.79,3.79,0,0,0,3.793,3.793h13.834a3.79,3.79,0,0,0,3.793-3.793V4.926a3.79,3.79,0,0,0-3.793-3.793m-4.507,14.753h-1.865a.135.135,0,0,1-.143-.1l-.732-2.124h-3.32l-.678,2.1a.156.156,0,0,1-.17.125H196c-.1,0-.125-.054-.1-.161l2.874-8.274c.027-.089.054-.187.089-.294a3.119,3.119,0,0,0,.053-.58.089.089,0,0,1,.072-.1H201.3c.071,0,.107.027.116.071l3.258,9.193c.027.1,0,.143-.089.143m3.035-.134c0,.1-.036.143-.116.143h-1.749a.125.125,0,0,1-.134-.143V8.88c0-.089.036-.125.116-.125H207.5c.08,0,.116.045.116.125Zm-.187-8.059a1.05,1.05,0,0,1-.812.312,1.1,1.1,0,0,1-.794-.312,1.158,1.158,0,0,1-.3-.821,1.05,1.05,0,0,1,.321-.794,1.144,1.144,0,0,1,.794-.312,1.07,1.07,0,0,1,.812.312,1.127,1.127,0,0,1,.294.794,1.129,1.129,0,0,1-.312.821" transform="translate(-146.252 -0.865)" fill="#777"/>
    <path id="Path_4133" data-name="Path 4133" d="M225.373,33.077c-.089-.277-.17-.545-.259-.821s-.17-.536-.241-.794-.134-.482-.2-.7h-.018a10.973,10.973,0,0,1-.3,1.151c-.134.428-.268.875-.41,1.321-.125.455-.259.875-.393,1.25h2.267c-.054-.187-.125-.411-.205-.643s-.161-.5-.241-.767" transform="translate(-170.764 -23.5)" fill="#777"/>
  </g>
</svg>
