<svg xmlns="http://www.w3.org/2000/svg" width="26.369" height="21.42" viewBox="0 0 26.369 21.42">
  <g id="Blender" transform="translate(-227.657 0)">
    <path id="Path_4139" data-name="Path 4139" d="M1028.274,38.841a3.832,3.832,0,0,0-4.861,0,3.112,3.112,0,0,0-1.13,2.2,3.054,3.054,0,0,0,.95,2.364,3.819,3.819,0,0,0,5.219,0,3.058,3.058,0,0,0,.951-2.365,3.116,3.116,0,0,0-1.13-2.2" transform="translate(-780.879 -29.004)" fill="#777"/>
    <path id="Path_4140" data-name="Path 4140" d="M990.377,11.951A7.824,7.824,0,0,0,989.261,8.9a8.52,8.52,0,0,0-2.035-2.244h0L978.99.327c-.008-.005-.013-.012-.021-.017a1.831,1.831,0,0,0-2.044,0,.928.928,0,0,0-.135,1.554l0,0,3.436,2.794-10.471.011h-.014a1.91,1.91,0,0,0-1.862,1.286c-.169.731.419,1.338,1.319,1.341v0l5.308-.01-9.471,7.27-.036.027a1.861,1.861,0,0,0-.62,2.542,1.912,1.912,0,0,0,2.688,0l5.169-4.23a8.1,8.1,0,0,0-.069.914,6.513,6.513,0,0,0,.281,1.535,8.1,8.1,0,0,0,1.75,3.029,9.038,9.038,0,0,0,3.062,2.2,10.011,10.011,0,0,0,8.039-.014,9.1,9.1,0,0,0,3.06-2.208,8.166,8.166,0,0,0,1.749-3.035,7.629,7.629,0,0,0,.274-3.377m-13.274,3.8a4.962,4.962,0,0,1-1.139-1.782,4.628,4.628,0,0,1-.261-1.992,4.7,4.7,0,0,1,.57-1.875,5.173,5.173,0,0,1,1.267-1.507,6.02,6.02,0,0,1,7.465-.011,5.144,5.144,0,0,1,1.266,1.5,4.7,4.7,0,0,1,.573,1.874,4.639,4.639,0,0,1-.262,1.99,4.978,4.978,0,0,1-1.138,1.786,5.974,5.974,0,0,1-8.341.013" transform="translate(-736.428)" fill="#777"/>
  </g>
</svg>
