<svg xmlns="http://www.w3.org/2000/svg" width="21.42" height="19.138" viewBox="0 0 21.42 19.138">
  <g id="Drive" transform="translate(-365.056 -1.143)">
    <path id="Path_4135" data-name="Path 4135" d="M1567.351,17.836a2.226,2.226,0,0,0-.294-1.1l-3.1-5.4-3.116-5.4a2.23,2.23,0,0,0-.809-.81,2.158,2.158,0,0,0-1.1-.294h-4.539a2.284,2.284,0,0,0-1.1.294,2.229,2.229,0,0,0-.81.81l-6.232,10.8a2.218,2.218,0,0,0,0,2.208l1.325,2.294.944,1.632a2.23,2.23,0,0,0,.81.809,2.155,2.155,0,0,0,1.1.294h12.464a2.282,2.282,0,0,0,1.1-.294,2.228,2.228,0,0,0,.81-.809l.393-.675,1.877-3.251a2.225,2.225,0,0,0,.294-1.1Zm-6.736,0h-7.925l3.963-6.87,3.963,6.87Z" transform="translate(-1180.887 -3.689)" fill="#777"/>
  </g>
</svg>
