<svg xmlns="http://www.w3.org/2000/svg" width="19.102" height="21.421" viewBox="0 0 19.102 21.421">
  <g id="Hotjar" transform="translate(-277.641)">
    <path id="Path_4137" data-name="Path 4137" d="M1183.629,8.765c2.483-1.37,5.88-3.269,5.88-8.765H1185.4c0,3.068-1.5,3.908-3.761,5.168-2.484,1.388-5.88,3.269-5.88,8.765h4.109c0-3.086,1.5-3.908,3.762-5.168" transform="translate(-898.117)" fill="#777"/>
    <path id="Path_4138" data-name="Path 4138" d="M1208.058,31.7c0,3.068-1.5,3.908-3.762,5.168-2.483,1.369-5.88,3.269-5.88,8.765h4.109c0-3.068,1.5-3.908,3.762-5.168,2.484-1.37,5.88-3.269,5.88-8.765Z" transform="translate(-915.424 -24.217)" fill="#777"/>
  </g>
</svg>
