<svg xmlns="http://www.w3.org/2000/svg" width="21.42" height="20.884" viewBox="0 0 21.42 20.884">
  <g id="Id" transform="translate(-92.61 -0.545)">
    <path id="Path_4128" data-name="Path 4128" d="M409.807,2.305H395.973A3.79,3.79,0,0,0,392.18,6.1V19.4a3.79,3.79,0,0,0,3.793,3.793h13.833A3.79,3.79,0,0,0,413.6,19.4V6.1a3.79,3.79,0,0,0-3.793-3.793M399.962,16.96c0,.1-.045.143-.125.143h-1.749c-.08,0-.116-.045-.116-.143V7.767c0-.08.045-.116.125-.116h1.74a.1.1,0,0,1,.116.089.033.033,0,0,1,.009.027Zm7.988-.3a6.822,6.822,0,0,1-1.455.428,7.8,7.8,0,0,1-1.374.125,4.435,4.435,0,0,1-1.919-.4,3.11,3.11,0,0,1-1.348-1.214,3.86,3.86,0,0,1-.491-2.035,3.664,3.664,0,0,1,.491-1.883,3.706,3.706,0,0,1,1.419-1.383,4.566,4.566,0,0,1,2.258-.518,1.586,1.586,0,0,1,.188.009c.08.009.17.009.277.018V6.982c0-.063.027-.1.089-.1H407.9a.08.08,0,0,1,.089.063V15.46c0,.161.009.339.018.536s.027.366.036.518a.145.145,0,0,1-.089.143" transform="translate(-299.57 -1.76)" fill="#777"/>
    <path id="Path_4129" data-name="Path 4129" d="M441.747,40.97a2.2,2.2,0,0,0-1.009.232,2,2,0,0,0-.758.66A1.977,1.977,0,0,0,439.685,43a2.484,2.484,0,0,0,.152.919,1.745,1.745,0,0,0,.4.634,1.544,1.544,0,0,0,.607.357,2.336,2.336,0,0,0,.741.116c.134,0,.259-.009.375-.018a.761.761,0,0,0,.321-.044V41.033a2.287,2.287,0,0,0-.241-.045c-.1-.009-.2-.018-.294-.018" transform="translate(-335.857 -31.295)" fill="#777"/>
  </g>
</svg>
