<svg xmlns="http://www.w3.org/2000/svg" width="21.42" height="17.623" viewBox="0 0 21.42 17.623">
  <g id="Meet" transform="translate(-320.021 -1.898)">
    <path id="Path_4136" data-name="Path 4136" d="M1375.448,10.164l-3.206,2.629V9.508a1.468,1.468,0,0,0-1.469-1.469h-10.525l-5.018,5.018V24.194a1.468,1.468,0,0,0,1.469,1.469h14.074a1.468,1.468,0,0,0,1.469-1.469V21.031l3.221,2.641a.735.735,0,0,0,1.187-.58V10.731a.736.736,0,0,0-1.2-.568m-8.1,10.481h-7.1V13.057h7.1v7.588Z" transform="translate(-1035.209 -6.141)" fill="#777"/>
  </g>
</svg>
