<svg xmlns="http://www.w3.org/2000/svg" width="21.42" height="20.884" viewBox="0 0 21.42 20.884">
  <g id="PS" transform="translate(0 -0.269)">
    <path id="Path_4130" data-name="Path 4130" d="M17.627,1.134H3.793A3.79,3.79,0,0,0,0,4.927v13.3a3.79,3.79,0,0,0,3.793,3.793H17.627a3.79,3.79,0,0,0,3.793-3.793V4.927a3.79,3.79,0,0,0-3.793-3.793m-6.6,10.4A3.058,3.058,0,0,1,9.594,12.62a5.783,5.783,0,0,1-2.008.3c-.214,0-.357,0-.446-.009s-.214-.009-.384-.009v2.865a.111.111,0,0,1-.1.125H4.927c-.071,0-.107-.036-.107-.116V6.6c0-.063.027-.1.089-.1.152,0,.294,0,.5-.009s.437-.009.678-.018.5-.009.776-.018.544-.009.812-.009a5.247,5.247,0,0,1,1.839.277,3.191,3.191,0,0,1,1.2.732,2.846,2.846,0,0,1,.652,1.018,3.414,3.414,0,0,1,.205,1.16,3.191,3.191,0,0,1-.536,1.9M17.359,15a2.237,2.237,0,0,1-1,.794,4.093,4.093,0,0,1-1.615.285,6.15,6.15,0,0,1-1.214-.116,3.6,3.6,0,0,1-.91-.286.175.175,0,0,1-.1-.17V13.959a.1.1,0,0,1,.036-.08.068.068,0,0,1,.08.009,3.823,3.823,0,0,0,1.107.437,4.165,4.165,0,0,0,1.053.134,1.7,1.7,0,0,0,.741-.125.414.414,0,0,0,.241-.375.473.473,0,0,0-.214-.357,3.79,3.79,0,0,0-.875-.419,5.477,5.477,0,0,1-1.267-.643,2.314,2.314,0,0,1-.678-.759,1.914,1.914,0,0,1-.205-.91,2.1,2.1,0,0,1,.3-1.08,2.2,2.2,0,0,1,.937-.821,3.461,3.461,0,0,1,1.58-.312,7.684,7.684,0,0,1,1.107.08,3.138,3.138,0,0,1,.768.205.157.157,0,0,1,.089.08.444.444,0,0,1,.018.107v1.455a.109.109,0,0,1-.045.089.236.236,0,0,1-.161,0,3.168,3.168,0,0,0-.857-.3,4.712,4.712,0,0,0-1-.116,1.8,1.8,0,0,0-.536.062.46.46,0,0,0-.277.179.474.474,0,0,0-.071.241.4.4,0,0,0,.089.232,1.012,1.012,0,0,0,.3.241c.205.107.419.205.634.294a6.47,6.47,0,0,1,1.375.652,2.078,2.078,0,0,1,.705.741,1.929,1.929,0,0,1,.205.919A2.075,2.075,0,0,1,17.359,15" transform="translate(0 -0.865)" fill="#777"/>
    <path id="Path_4131" data-name="Path 4131" d="M30.675,31.243a2.617,2.617,0,0,0-1.053-.179c-.232,0-.437,0-.607.009a2.03,2.03,0,0,0-.366.009v3c.125.009.241.018.348.018h.473a3.329,3.329,0,0,0,1.026-.161,1.534,1.534,0,0,0,.732-.473,1.379,1.379,0,0,0,.277-.919,1.47,1.47,0,0,0-.205-.794,1.3,1.3,0,0,0-.625-.509" transform="translate(-21.885 -23.729)" fill="#777"/>
  </g>
</svg>
