<svg xmlns="http://www.w3.org/2000/svg" width="21.034" height="21.034" viewBox="0 0 21.034 21.034">
  <g id="Wordpress" transform="translate(-455.127 -0.119)">
    <path id="Path_4143" data-name="Path 4143" d="M1933.7,33.154a9.023,9.023,0,0,0,5.085,8.12l-4.3-11.793a8.981,8.981,0,0,0-.781,3.674" transform="translate(-1477.082 -22.518)" fill="#777"/>
    <path id="Path_4144" data-name="Path 4144" d="M1953.64,15.387l-.013,0a4.752,4.752,0,0,0-.744-2.487,4.223,4.223,0,0,1-.882-2.116,1.562,1.562,0,0,1,1.514-1.6c.041,0,.081,0,.117.007a9.02,9.02,0,0,0-13.631,1.7c.212.006.411.01.581.01.943,0,2.407-.115,2.407-.115a.373.373,0,0,1,.058.743s-.489.058-1.032.086l3.29,9.773,1.974-5.922-1.406-3.851c-.486-.029-.946-.086-.946-.086a.373.373,0,0,1,.057-.743s1.49.115,2.377.115c.943,0,2.406-.115,2.406-.115a.373.373,0,0,1,.058.743s-.49.058-1.033.086l3.261,9.7.9-3.007a10.906,10.906,0,0,0,.687-2.916" transform="translate(-1481.893 -5.209)" fill="#777"/>
    <path id="Path_4145" data-name="Path 4145" d="M1963.825,48.377l-2.707,7.862a9.029,9.029,0,0,0,5.545-.144.784.784,0,0,1-.064-.124Z" transform="translate(-1498.023 -36.953)" fill="#777"/>
    <path id="Path_4146" data-name="Path 4146" d="M1991.135,38.83a9.024,9.024,0,0,0,3.381-12.127,7.013,7.013,0,0,1,.061.928,8.517,8.517,0,0,1-.686,3.232Z" transform="translate(-1520.951 -20.396)" fill="#777"/>
    <path id="Path_4147" data-name="Path 4147" d="M1937.89.5a10.517,10.517,0,1,0,10.517,10.517h0A10.528,10.528,0,0,0,1937.89.5m10.034,10.516A10.035,10.035,0,1,1,1937.889.979a10.046,10.046,0,0,1,10.036,10.035Z" transform="translate(-1472.246 -0.379)" fill="#777"/>
  </g>
</svg>
