<svg xmlns="http://www.w3.org/2000/svg" width="21.42" height="20.884" viewBox="0 0 21.42 20.884">
  <g id="Xd" transform="translate(-182.652 -0.982)">
    <path id="Path_4141" data-name="Path 4141" d="M791.12,4.158H777.287a3.79,3.79,0,0,0-3.793,3.793v13.3a3.79,3.79,0,0,0,3.793,3.793H791.12a3.79,3.79,0,0,0,3.793-3.793V7.951a3.79,3.79,0,0,0-3.793-3.793m-6.167,14.7c-.009.036-.045.009-.1.018h-2.044c-.143,0-.241-.009-.3-.1-.187-.375-.384-.741-.571-1.116s-.393-.741-.607-1.124-.428-.767-.643-1.16h-.018c-.187.384-.393.767-.6,1.151s-.411.768-.607,1.142-.411.759-.616,1.124c-.036.089-.107.1-.205.1H776.68c-.036,0-.063.018-.063-.027a.123.123,0,0,1,.018-.1l2.776-4.552-2.7-4.578c-.027-.036-.036-.071-.018-.089a.1.1,0,0,1,.089-.036H778.8a.524.524,0,0,1,.125.018.251.251,0,0,1,.089.08c.17.384.366.767.571,1.151s.419.758.643,1.133.411.75.6,1.133h.018c.188-.393.384-.777.58-1.151s.4-.75.607-1.124.4-.759.6-1.124a.152.152,0,0,1,.054-.089.169.169,0,0,1,.116-.018h1.883a.082.082,0,0,1,.1.063c.009.009-.009.045-.027.062l-2.677,4.418,2.856,4.685a.154.154,0,0,1,.018.107m6.756-.348a6.821,6.821,0,0,1-1.455.428,7.874,7.874,0,0,1-1.374.125,4.435,4.435,0,0,1-1.919-.4,3.11,3.11,0,0,1-1.348-1.214,3.859,3.859,0,0,1-.491-2.035,3.664,3.664,0,0,1,.491-1.883,3.706,3.706,0,0,1,1.419-1.383,4.566,4.566,0,0,1,2.258-.518,1.588,1.588,0,0,1,.188.009c.08.009.17.009.277.018V8.835c0-.063.027-.1.089-.1h1.812a.08.08,0,0,1,.089.063v8.514c0,.161.009.339.018.536s.027.366.036.518a.145.145,0,0,1-.089.143" transform="translate(-590.842 -3.176)" fill="#777"/>
    <path id="Path_4142" data-name="Path 4142" d="M833.417,42.822a2.2,2.2,0,0,0-1.009.232,2,2,0,0,0-.758.66,1.977,1.977,0,0,0-.295,1.133,2.484,2.484,0,0,0,.152.919,1.745,1.745,0,0,0,.4.634,1.544,1.544,0,0,0,.607.357,2.337,2.337,0,0,0,.741.116c.134,0,.259-.009.375-.018a.781.781,0,0,0,.321-.044V42.885a2.282,2.282,0,0,0-.241-.045c-.1-.009-.2-.018-.294-.018" transform="translate(-635.039 -32.709)" fill="#777"/>
  </g>
</svg>
