<svg version="1.2" xmlns="http://www.w3.org/2000/svg" viewBox="0 0 179 179" width="179" height="179">

	<style>
		.s0 { fill: #e1d5c1 } 
		.s1 { fill: #ee4023 } 
	</style>
	<g id="Warstwa 1">
		<g id="&lt;Group&gt;">
			<g id="-e-logo">
				<g id="&lt;Group&gt;">
					<path id="&lt;Compound Path&gt;" fill-rule="evenodd" class="s0" d="m89.6 144.2c-21.5 0-43.7-5.7-60.8-15.7-18.3-10.7-28.3-24.6-28.3-39.2 0-14.6 10.2-28.5 28.9-39.2 17.3-10 39.2-15.7 60.2-15.7 21.8 0 44 5.7 61 15.7 18.2 10.6 28.2 24.5 28.2 39.2 0 14.7-9.9 28.6-27.8 39.2-16.9 10-39.3 15.7-61.4 15.7zm0-105c-38.9 0-84.2 21.9-84.2 50.1 0 26.2 40.1 50 84.2 50 44.9 0 84.3-23.4 84.3-50 0-26.2-40.1-50.1-84.3-50.1z"/>
				</g>
				<g id="&lt;Group&gt;">
					<path id="&lt;Compound Path&gt;" fill-rule="evenodd" class="s0" d="m89.6 178.4c-14.5 0-28.4-10.2-39.2-28.9-9.9-17.3-15.7-39.2-15.7-60.2 0-21.8 5.8-44 15.7-61 10.7-18.2 24.6-28.2 39.2-28.2 14.7 0 28.7 9.9 39.2 27.8 10 16.9 15.8 39.3 15.8 61.4 0 21.5-5.8 43.7-15.7 60.8-10.7 18.3-24.6 28.3-39.3 28.3zm0-173.4c-26.1 0-50 40.2-50 84.3 0 39 21.9 84.3 50 84.3 26.2 0 50.1-40.2 50.1-84.3 0-44.9-23.4-84.3-50.1-84.3z"/>
				</g>
				<g id="&lt;Group&gt;">
					<path id="&lt;Compound Path&gt;" fill-rule="evenodd" class="s1" d="m89.6 178.4c-49.1 0-89.1-40-89.1-89.1 0-49.2 40-89.2 89.1-89.2 49.2 0 89.2 40 89.2 89.2 0 49.1-40 89.1-89.2 89.1zm0-173.4c-46.4 0-84.2 37.8-84.2 84.3 0 46.5 37.8 84.3 84.2 84.3 46.5 0 84.3-37.8 84.3-84.3 0-46.5-37.8-84.3-84.3-84.3z"/>
				</g>
				<g id="&lt;Group&gt;">
				</g>
			</g>
		</g>
	</g>
</svg>